<svg width="312" height="63" viewBox="0 0 312 63" fill="none" xmlns="http://www.w3.org/2000/svg">
<g filter="url(#filter0_d_2_295)">
<path d="M27 7.5H17C11.4772 7.5 7 11.9772 7 17.5V27.5C7 33.0228 11.4772 37.5 17 37.5H27C32.5228 37.5 37 33.0228 37 27.5V17.5C37 11.9772 32.5228 7.5 27 7.5Z" fill="white"/>
</g>
<path d="M30.528 20.099C30.4884 20.0507 30.4387 20.0118 30.3824 19.985C30.326 19.9582 30.2644 19.9442 30.202 19.944H28.602C28.3318 19.0082 27.8159 18.1619 27.108 17.493C25.086 16.163 19.723 16.163 17.701 17.493C16.9941 18.1627 16.4784 19.0088 16.207 19.944H14.608C14.5455 19.944 14.4838 19.958 14.4274 19.9848C14.371 20.0117 14.3213 20.0507 14.2818 20.0992C14.2424 20.1476 14.2142 20.2042 14.1994 20.2649C14.1845 20.3256 14.1834 20.3888 14.196 20.45L14.433 21.598C14.4527 21.6926 14.5045 21.7776 14.5795 21.8386C14.6545 21.8996 14.7483 21.933 14.845 21.933H15.319C14.8756 22.451 14.6332 23.1111 14.636 23.793C14.6277 24.1834 14.7017 24.5711 14.8531 24.9311C15.0046 25.291 15.2301 25.615 15.515 25.882L15.534 25.897V27.503C15.5343 27.6703 15.6008 27.8306 15.7191 27.9489C15.8374 28.0672 15.9977 28.1337 16.165 28.134H17.641C17.8083 28.1337 17.9686 28.0672 18.0869 27.9489C18.2052 27.8306 18.2717 27.6703 18.272 27.503V26.857H26.537V27.503C26.5373 27.6703 26.6038 27.8306 26.7221 27.9489C26.8404 28.0672 27.0007 28.1337 27.168 28.134H28.643C28.8103 28.1337 28.9706 28.0672 29.0889 27.9489C29.2072 27.8306 29.2737 27.6703 29.274 27.503V25.926C29.8139 25.4127 30.1345 24.7106 30.1688 23.9665C30.2031 23.2223 29.9484 22.4937 29.458 21.933H29.963C30.0599 21.9333 30.154 21.9 30.2291 21.8387C30.3042 21.7774 30.3558 21.692 30.375 21.597L30.612 20.449C30.6245 20.3881 30.6235 20.3251 30.609 20.2646C30.5945 20.2041 30.5668 20.1476 30.528 20.099ZM18.394 18.552C20.006 17.491 24.803 17.491 26.413 18.552C26.9246 19.1455 27.2956 19.847 27.498 20.604H17.31C17.5121 19.8471 17.8827 19.1456 18.394 18.552ZM16.506 23.952C16.5058 23.7063 16.5785 23.4661 16.7148 23.2617C16.8512 23.0573 17.0451 22.898 17.272 22.8038C17.4989 22.7097 17.7487 22.6849 17.9897 22.7327C18.2307 22.7805 18.4521 22.8987 18.6259 23.0724C18.7997 23.2461 18.918 23.4674 18.966 23.7083C19.0141 23.9493 18.9895 24.199 18.8955 24.426C18.8016 24.653 18.6424 24.8471 18.4381 24.9836C18.2338 25.1201 17.9937 25.193 17.748 25.193C17.5847 25.193 17.423 25.1608 17.2722 25.0983C17.1214 25.0357 16.9844 24.944 16.8691 24.8285C16.7537 24.713 16.6623 24.5758 16.6 24.4249C16.5377 24.274 16.5057 24.1123 16.506 23.949V23.952ZM27.077 25.193C26.8313 25.193 26.5912 25.1201 26.387 24.9837C26.1827 24.8472 26.0235 24.6532 25.9295 24.4263C25.8355 24.1993 25.8109 23.9496 25.8589 23.7087C25.9068 23.4678 26.0251 23.2465 26.1988 23.0728C26.3725 22.8991 26.5938 22.7808 26.8347 22.7328C27.0756 22.6849 27.3253 22.7095 27.5523 22.8035C27.7792 22.8975 27.9732 23.0567 28.1097 23.261C28.2461 23.4652 28.319 23.7053 28.319 23.951C28.319 24.2804 28.1881 24.5963 27.9552 24.8292C27.7223 25.0621 27.4064 25.193 27.077 25.193Z" fill="#003AA8"/>
<g filter="url(#filter1_d_2_295)">
<path d="M77 7.5H67C61.4772 7.5 57 11.9772 57 17.5V27.5C57 33.0228 61.4772 37.5 67 37.5H77C82.5228 37.5 87 33.0228 87 27.5V17.5C87 11.9772 82.5228 7.5 77 7.5Z" fill="white"/>
</g>
<path d="M80.132 22.4921H66.526V18.0231C66.5231 17.7348 66.599 17.4512 66.7457 17.203C66.8924 16.9549 67.1041 16.7515 67.358 16.6151C67.6388 16.4632 67.9584 16.3988 68.276 16.4301C68.1142 16.9199 68.0911 17.445 68.2094 17.9472C68.3276 18.4493 68.5826 18.9089 68.946 19.2751L69.795 20.1241C69.8693 20.1984 69.9576 20.2574 70.0547 20.2977C70.1518 20.338 70.2559 20.3587 70.361 20.3587C70.4662 20.3587 70.5703 20.338 70.6674 20.2977C70.7645 20.2574 70.8528 20.1984 70.927 20.1241L73.758 17.2921C73.8324 17.2178 73.8914 17.1295 73.9317 17.0324C73.972 16.9353 73.9927 16.8312 73.9927 16.7261C73.9927 16.6209 73.972 16.5168 73.9317 16.4197C73.8914 16.3226 73.8324 16.2344 73.758 16.1601L72.909 15.3111C72.4363 14.8415 71.8115 14.556 71.1471 14.5058C70.4826 14.4555 69.8221 14.6439 69.284 15.0371C68.7989 14.8487 68.2751 14.7816 67.7582 14.8414C67.2412 14.9012 66.7466 15.0862 66.3173 15.3804C65.888 15.6745 65.5369 16.069 65.2945 16.5295C65.052 16.99 64.9256 17.5026 64.926 18.0231V22.4921H64.126C63.9139 22.4921 63.7104 22.5763 63.5604 22.7264C63.4103 22.8764 63.326 23.0799 63.326 23.2921C63.326 23.5042 63.4103 23.7077 63.5604 23.8577C63.7104 24.0078 63.9139 24.0921 64.126 24.0921H64.926V26.4921C64.9281 26.9867 65.0829 27.4686 65.3693 27.8719C65.6557 28.2752 66.0597 28.5802 66.526 28.7451V29.6931C66.526 29.9052 66.6103 30.1087 66.7604 30.2587C66.9104 30.4088 67.1139 30.4931 67.326 30.4931C67.5382 30.4931 67.7417 30.4088 67.8917 30.2587C68.0418 30.1087 68.126 29.9052 68.126 29.6931V28.8931H76.126V29.6931C76.126 29.9052 76.2103 30.1087 76.3604 30.2587C76.5104 30.4088 76.7139 30.4931 76.9261 30.4931C77.1382 30.4931 77.3417 30.4088 77.4917 30.2587C77.6418 30.1087 77.726 29.9052 77.726 29.6931V28.7451C78.1924 28.5802 78.5964 28.2752 78.8828 27.8719C79.1692 27.4686 79.324 26.9867 79.326 26.4921V24.0921H80.126C80.3382 24.0921 80.5417 24.0078 80.6917 23.8577C80.8418 23.7077 80.9261 23.5042 80.9261 23.2921C80.9261 23.0799 80.8418 22.8764 80.6917 22.7264C80.5417 22.5763 80.3382 22.4921 80.126 22.4921H80.132ZM70.08 16.4461C70.1915 16.3342 70.324 16.2454 70.4699 16.1849C70.6157 16.1243 70.7721 16.0931 70.93 16.0931C71.088 16.0931 71.2444 16.1243 71.3902 16.1849C71.5361 16.2454 71.6686 16.3342 71.7801 16.4461L72.0631 16.7291L70.363 18.4291L70.08 18.1461C69.9682 18.0346 69.8794 17.9021 69.8188 17.7562C69.7583 17.6104 69.7271 17.454 69.7271 17.2961C69.7271 17.1381 69.7583 16.9817 69.8188 16.8359C69.8794 16.69 69.9682 16.5575 70.08 16.4461ZM77.731 26.4981C77.731 26.7102 77.6468 26.9137 77.4967 27.0637C77.3467 27.2138 77.1432 27.2981 76.931 27.2981H67.326C67.1139 27.2981 66.9104 27.2138 66.7604 27.0637C66.6103 26.9137 66.526 26.7102 66.526 26.4981V24.0981H77.726L77.731 26.4981Z" fill="#003AA8"/>
<g filter="url(#filter2_d_2_295)">
<path d="M113 7.5H131C132.591 7.5 134.117 8.13214 135.243 9.25736C136.368 10.3826 137 11.9087 137 13.5V31.5C137 33.0913 136.368 34.6174 135.243 35.7426C134.117 36.8679 132.591 37.5 131 37.5H113C111.409 37.5 109.883 36.8679 108.757 35.7426C107.632 34.6174 107 33.0913 107 31.5V13.5C107 11.9087 107.632 10.3826 108.757 9.25736C109.883 8.13214 111.409 7.5 113 7.5Z" fill="white"/>
</g>
<path d="M121.789 22.65C121.793 21.9979 121.628 21.3558 121.309 20.787L121.234 20.656H116.554L116.481 20.787C116.162 21.356 115.997 21.9979 116.001 22.65C115.959 23.409 116.185 24.1586 116.639 24.7686C117.092 25.3786 117.745 25.8104 118.484 25.989V29.955C117.675 29.988 117.072 30.111 117.072 30.255C117.072 30.428 117.894 30.567 118.908 30.567C119.922 30.567 120.746 30.428 120.746 30.255C120.746 30.109 120.146 29.986 119.334 29.955V25.985C120.066 25.7992 120.711 25.3652 121.159 24.757C121.606 24.1488 121.829 23.4041 121.789 22.65ZM118.894 25.5C118.203 25.43 117.568 25.0922 117.123 24.5591C116.679 24.0259 116.461 23.3398 116.517 22.648C116.514 22.1356 116.631 21.6297 116.86 21.171H120.929C121.157 21.6299 121.274 22.1357 121.271 22.648C121.327 23.3399 121.109 24.0261 120.665 24.5593C120.22 25.0925 119.585 25.4303 118.894 25.5ZM126.744 16.28H124.686V14.5H126.744V16.28ZM126.744 18.492V16.834H124.686V18.5C124.246 18.6972 123.873 19.0174 123.611 19.4219C123.349 19.8264 123.209 20.298 123.209 20.78V30.66H128.22V20.78C128.22 20.2981 128.08 19.8266 127.819 19.4221C127.557 19.0176 127.184 18.6974 126.744 18.5V18.492ZM127.777 28.136H123.696V23.236H127.777V28.136ZM121.057 22.7C121.057 22.7 120.949 25.289 118.929 25.289C116.909 25.289 116.637 22.7 116.637 22.7H121.057Z" fill="#003AA8"/>
<g filter="url(#filter3_d_2_295)">
<path d="M163 7.5H181C182.591 7.5 184.117 8.13214 185.243 9.25736C186.368 10.3826 187 11.9087 187 13.5V31.5C187 33.0913 186.368 34.6174 185.243 35.7426C184.117 36.8679 182.591 37.5 181 37.5H163C161.409 37.5 159.883 36.8679 158.757 35.7426C157.632 34.6174 157 33.0913 157 31.5V13.5C157 11.9087 157.632 10.3826 158.757 9.25736C159.883 8.13214 161.409 7.5 163 7.5Z" fill="white"/>
</g>
<path d="M167.123 22.194C168.352 21.17 169.902 20.6093 171.501 20.6093C173.101 20.6093 174.651 21.17 175.88 22.194" stroke="#003AA8" stroke-width="1.2" stroke-linecap="round" stroke-linejoin="round"/>
<path d="M164.896 19.986C166.714 18.3839 169.053 17.5 171.476 17.5C173.899 17.5 176.238 18.3839 178.056 19.986" stroke="#003AA8" stroke-width="1.2" stroke-linecap="round" stroke-linejoin="round"/>
<path d="M169.318 24.408C169.949 23.9596 170.705 23.7187 171.479 23.7187C172.253 23.7187 173.009 23.9596 173.64 24.408" stroke="#003AA8" stroke-width="1.2" stroke-linecap="round" stroke-linejoin="round"/>
<circle cx="171.476" cy="26.827" r="0.6" fill="#003AA8"/>
<g filter="url(#filter4_d_2_295)">
<path d="M227 7.5H217C211.477 7.5 207 11.9772 207 17.5V27.5C207 33.0228 211.477 37.5 217 37.5H227C232.523 37.5 237 33.0228 237 27.5V17.5C237 11.9772 232.523 7.5 227 7.5Z" fill="white"/>
</g>
<path d="M229.882 20.988C229.801 20.888 229.7 20.8069 229.584 20.7505C229.469 20.6942 229.342 20.664 229.214 20.662H228.836V20.357C228.828 20.0836 228.711 19.8247 228.512 19.6372C228.313 19.4497 228.047 19.3489 227.774 19.357H227.274V18.788C227.273 18.6548 227.245 18.5232 227.192 18.4012C227.139 18.2792 227.061 18.1692 226.964 18.078C226.763 17.8992 226.503 17.8004 226.234 17.8004C225.964 17.8004 225.704 17.8992 225.503 18.078C225.406 18.1693 225.328 18.2794 225.275 18.4017C225.222 18.5239 225.194 18.6557 225.193 18.789V21.438H218.431V18.788C218.43 18.6548 218.402 18.5232 218.349 18.4012C218.296 18.2791 218.218 18.1692 218.121 18.078C217.92 17.8992 217.66 17.8004 217.391 17.8004C217.121 17.8004 216.861 17.8992 216.66 18.078C216.563 18.1692 216.485 18.2791 216.432 18.4012C216.379 18.5232 216.351 18.6548 216.35 18.788V19.352H215.789C215.531 19.3504 215.281 19.4456 215.089 19.619C214.995 19.7043 214.92 19.808 214.869 19.9236C214.817 20.0393 214.79 20.1644 214.789 20.291V20.652H214.415C214.286 20.654 214.159 20.6844 214.043 20.7411C213.927 20.7978 213.825 20.8794 213.744 20.98C213.575 21.1879 213.485 21.4484 213.489 21.716V23.239C213.486 23.5049 213.576 23.7635 213.744 23.97C213.825 24.0706 213.927 24.1522 214.043 24.2089C214.159 24.2656 214.286 24.296 214.415 24.298H214.789V24.659C214.79 24.7856 214.817 24.9107 214.869 25.0264C214.92 25.142 214.995 25.2457 215.089 25.331C215.281 25.5045 215.53 25.5997 215.789 25.598H216.348V26.162C216.349 26.2952 216.377 26.4268 216.43 26.5488C216.483 26.6709 216.561 26.7808 216.658 26.872C216.857 27.0565 217.117 27.1591 217.389 27.1591C217.66 27.1591 217.92 27.0565 218.119 26.872C218.216 26.7808 218.294 26.6709 218.347 26.5488C218.4 26.4268 218.428 26.2952 218.429 26.162V23.518H225.192V26.163C225.193 26.2962 225.221 26.4278 225.274 26.5498C225.327 26.6719 225.405 26.7818 225.502 26.873C225.701 27.0575 225.961 27.1601 226.233 27.1601C226.504 27.1601 226.764 27.0575 226.963 26.873C227.06 26.7818 227.138 26.6718 227.191 26.5498C227.244 26.4277 227.272 26.2962 227.273 26.163V25.599H227.773C227.908 25.6031 228.043 25.5805 228.17 25.5325C228.297 25.4845 228.413 25.412 228.511 25.3191C228.61 25.2262 228.689 25.1148 228.745 24.9913C228.8 24.8677 228.831 24.7344 228.835 24.599V24.294H229.213C229.341 24.2919 229.468 24.2616 229.583 24.2053C229.699 24.1489 229.8 24.0679 229.881 23.968C230.048 23.7623 230.138 23.5048 230.135 23.24V21.712C230.137 21.4487 230.048 21.1928 229.882 20.988ZM214.415 23.778C214.362 23.7762 214.311 23.7627 214.264 23.7385C214.217 23.7143 214.176 23.68 214.144 23.638C214.054 23.5242 214.007 23.3829 214.009 23.238V21.716C214.007 21.5711 214.054 21.4298 214.144 21.316C214.176 21.274 214.217 21.2397 214.264 21.2155C214.311 21.1913 214.362 21.1778 214.415 21.176H214.789V23.776L214.415 23.778ZM215.791 25.078C215.663 25.079 215.539 25.0327 215.443 24.948C215.402 24.9118 215.369 24.8674 215.346 24.8176C215.323 24.7678 215.311 24.7138 215.31 24.659V20.296C215.311 20.2413 215.323 20.1873 215.345 20.1375C215.368 20.0877 215.401 20.0432 215.442 20.007C215.538 19.9219 215.663 19.8752 215.791 19.876H216.35V25.076L215.791 25.078ZM217.911 26.162C217.911 26.2245 217.897 26.2862 217.872 26.3433C217.847 26.4004 217.81 26.4517 217.764 26.494C217.66 26.5831 217.528 26.632 217.391 26.632C217.254 26.632 217.122 26.5831 217.018 26.494C216.972 26.4518 216.935 26.4005 216.91 26.3433C216.885 26.2862 216.871 26.2245 216.871 26.162V18.788C216.871 18.7255 216.885 18.6638 216.91 18.6067C216.935 18.5496 216.972 18.4983 217.018 18.456C217.12 18.3626 217.253 18.3108 217.392 18.3108C217.53 18.3108 217.663 18.3626 217.765 18.456C217.811 18.4984 217.847 18.5497 217.873 18.6068C217.898 18.6639 217.911 18.7256 217.911 18.788V26.158V26.162ZM218.431 22.997V21.958H225.194V22.998L218.431 22.997ZM226.755 26.162C226.755 26.2245 226.741 26.2862 226.716 26.3433C226.691 26.4004 226.654 26.4517 226.608 26.494C226.504 26.5831 226.372 26.632 226.235 26.632C226.098 26.632 225.966 26.5831 225.862 26.494C225.816 26.4518 225.779 26.4005 225.754 26.3433C225.729 26.2862 225.715 26.2245 225.715 26.162V18.788C225.715 18.7255 225.729 18.6638 225.754 18.6067C225.779 18.5496 225.816 18.4983 225.862 18.456C225.964 18.3626 226.097 18.3108 226.236 18.3108C226.374 18.3108 226.507 18.3626 226.609 18.456C226.655 18.4982 226.692 18.5495 226.717 18.6067C226.742 18.6638 226.756 18.7255 226.756 18.788V26.158L226.755 26.162ZM228.316 24.603C228.307 24.7376 228.244 24.8631 228.143 24.952C228.041 25.041 227.909 25.0862 227.774 25.078H227.274V19.878H227.774C227.909 19.8698 228.041 19.915 228.143 20.004C228.244 20.0929 228.307 20.2184 228.316 20.353V24.605V24.603ZM229.616 23.243C229.619 23.3878 229.572 23.5292 229.482 23.643C229.45 23.6845 229.41 23.7186 229.364 23.7426C229.317 23.7666 229.266 23.7801 229.214 23.782H228.836V21.182H229.214C229.266 21.1839 229.317 21.1974 229.364 21.2214C229.41 21.2454 229.45 21.2795 229.482 21.321C229.572 21.4347 229.619 21.5762 229.616 21.721V23.243Z" fill="#003AA8"/>
<g filter="url(#filter5_d_2_295)">
<path d="M263 7.5H281C282.591 7.5 284.117 8.13214 285.243 9.25736C286.368 10.3826 287 11.9087 287 13.5V31.5C287 33.0913 286.368 34.6174 285.243 35.7426C284.117 36.8679 282.591 37.5 281 37.5H263C261.409 37.5 259.883 36.8679 258.757 35.7426C257.632 34.6174 257 33.0913 257 31.5V13.5C257 11.9087 257.632 10.3826 258.757 9.25736C259.883 8.13214 261.409 7.5 263 7.5Z" fill="white"/>
</g>
<path d="M271.449 23.5C272.001 23.5 272.449 23.0523 272.449 22.5C272.449 21.9477 272.001 21.5 271.449 21.5C270.897 21.5 270.449 21.9477 270.449 22.5C270.449 23.0523 270.897 23.5 271.449 23.5Z" stroke="#003AA8" stroke-linecap="round" stroke-linejoin="round"/>
<path d="M277.792 23.5C278.344 23.5 278.792 23.0523 278.792 22.5C278.792 21.9477 278.344 21.5 277.792 21.5C277.24 21.5 276.792 21.9477 276.792 22.5C276.792 23.0523 277.24 23.5 277.792 23.5Z" stroke="#003AA8" stroke-linecap="round" stroke-linejoin="round"/>
<path d="M265.105 23.5C265.657 23.5 266.105 23.0523 266.105 22.5C266.105 21.9477 265.657 21.5 265.105 21.5C264.553 21.5 264.105 21.9477 264.105 22.5C264.105 23.0523 264.553 23.5 265.105 23.5Z" stroke="#003AA8" stroke-linecap="round" stroke-linejoin="round"/>
<defs>
<filter id="filter0_d_2_295" x="0" y="0.5" width="62" height="62" filterUnits="userSpaceOnUse" color-interpolation-filters="sRGB">
<feFlood flood-opacity="0" result="BackgroundImageFix"/>
<feColorMatrix in="SourceAlpha" type="matrix" values="0 0 0 0 0 0 0 0 0 0 0 0 0 0 0 0 0 0 127 0" result="hardAlpha"/>
<feOffset dx="9" dy="9"/>
<feGaussianBlur stdDeviation="8"/>
<feColorMatrix type="matrix" values="0 0 0 0 0 0 0 0 0 0 0 0 0 0 0 0 0 0 0.22 0"/>
<feBlend mode="normal" in2="BackgroundImageFix" result="effect1_dropShadow_2_295"/>
<feBlend mode="normal" in="SourceGraphic" in2="effect1_dropShadow_2_295" result="shape"/>
</filter>
<filter id="filter1_d_2_295" x="50" y="0.5" width="62" height="62" filterUnits="userSpaceOnUse" color-interpolation-filters="sRGB">
<feFlood flood-opacity="0" result="BackgroundImageFix"/>
<feColorMatrix in="SourceAlpha" type="matrix" values="0 0 0 0 0 0 0 0 0 0 0 0 0 0 0 0 0 0 127 0" result="hardAlpha"/>
<feOffset dx="9" dy="9"/>
<feGaussianBlur stdDeviation="8"/>
<feColorMatrix type="matrix" values="0 0 0 0 0 0 0 0 0 0 0 0 0 0 0 0 0 0 0.22 0"/>
<feBlend mode="normal" in2="BackgroundImageFix" result="effect1_dropShadow_2_295"/>
<feBlend mode="normal" in="SourceGraphic" in2="effect1_dropShadow_2_295" result="shape"/>
</filter>
<filter id="filter2_d_2_295" x="100" y="0.5" width="62" height="62" filterUnits="userSpaceOnUse" color-interpolation-filters="sRGB">
<feFlood flood-opacity="0" result="BackgroundImageFix"/>
<feColorMatrix in="SourceAlpha" type="matrix" values="0 0 0 0 0 0 0 0 0 0 0 0 0 0 0 0 0 0 127 0" result="hardAlpha"/>
<feOffset dx="9" dy="9"/>
<feGaussianBlur stdDeviation="8"/>
<feColorMatrix type="matrix" values="0 0 0 0 0 0 0 0 0 0 0 0 0 0 0 0 0 0 0.22 0"/>
<feBlend mode="normal" in2="BackgroundImageFix" result="effect1_dropShadow_2_295"/>
<feBlend mode="normal" in="SourceGraphic" in2="effect1_dropShadow_2_295" result="shape"/>
</filter>
<filter id="filter3_d_2_295" x="150" y="0.5" width="62" height="62" filterUnits="userSpaceOnUse" color-interpolation-filters="sRGB">
<feFlood flood-opacity="0" result="BackgroundImageFix"/>
<feColorMatrix in="SourceAlpha" type="matrix" values="0 0 0 0 0 0 0 0 0 0 0 0 0 0 0 0 0 0 127 0" result="hardAlpha"/>
<feOffset dx="9" dy="9"/>
<feGaussianBlur stdDeviation="8"/>
<feColorMatrix type="matrix" values="0 0 0 0 0 0 0 0 0 0 0 0 0 0 0 0 0 0 0.22 0"/>
<feBlend mode="normal" in2="BackgroundImageFix" result="effect1_dropShadow_2_295"/>
<feBlend mode="normal" in="SourceGraphic" in2="effect1_dropShadow_2_295" result="shape"/>
</filter>
<filter id="filter4_d_2_295" x="200" y="0.5" width="62" height="62" filterUnits="userSpaceOnUse" color-interpolation-filters="sRGB">
<feFlood flood-opacity="0" result="BackgroundImageFix"/>
<feColorMatrix in="SourceAlpha" type="matrix" values="0 0 0 0 0 0 0 0 0 0 0 0 0 0 0 0 0 0 127 0" result="hardAlpha"/>
<feOffset dx="9" dy="9"/>
<feGaussianBlur stdDeviation="8"/>
<feColorMatrix type="matrix" values="0 0 0 0 0 0 0 0 0 0 0 0 0 0 0 0 0 0 0.22 0"/>
<feBlend mode="normal" in2="BackgroundImageFix" result="effect1_dropShadow_2_295"/>
<feBlend mode="normal" in="SourceGraphic" in2="effect1_dropShadow_2_295" result="shape"/>
</filter>
<filter id="filter5_d_2_295" x="250" y="0.5" width="62" height="62" filterUnits="userSpaceOnUse" color-interpolation-filters="sRGB">
<feFlood flood-opacity="0" result="BackgroundImageFix"/>
<feColorMatrix in="SourceAlpha" type="matrix" values="0 0 0 0 0 0 0 0 0 0 0 0 0 0 0 0 0 0 127 0" result="hardAlpha"/>
<feOffset dx="9" dy="9"/>
<feGaussianBlur stdDeviation="8"/>
<feColorMatrix type="matrix" values="0 0 0 0 0 0 0 0 0 0 0 0 0 0 0 0 0 0 0.22 0"/>
<feBlend mode="normal" in2="BackgroundImageFix" result="effect1_dropShadow_2_295"/>
<feBlend mode="normal" in="SourceGraphic" in2="effect1_dropShadow_2_295" result="shape"/>
</filter>
</defs>
</svg>
