<svg width="36" height="29" viewBox="0 0 36 29" fill="none" xmlns="http://www.w3.org/2000/svg">
<path d="M10.2828 19.6363L6.661 16.0146C6.31337 15.6654 5.89999 15.3886 5.44475 15.2002C4.98951 15.0117 4.50143 14.9153 4.00873 14.9166H1.5007C1.39828 14.91 1.29558 14.9244 1.19897 14.959C1.10235 14.9936 1.01386 15.0477 0.938972 15.1179C0.864085 15.1881 0.804392 15.2729 0.763584 15.367C0.722776 15.4612 0.701721 15.5628 0.701721 15.6654C0.701721 15.768 0.722776 15.8696 0.763584 15.9637C0.804392 16.0579 0.864085 16.1427 0.938972 16.2129C1.01386 16.2831 1.10235 16.3372 1.19897 16.3718C1.29558 16.4064 1.39828 16.4208 1.5007 16.4142H4.00873C4.60469 16.4162 5.17585 16.653 5.59852 17.0731L7.94024 19.4148H1.5007C1.3105 19.4272 1.13214 19.5115 1.00181 19.6505C0.871475 19.7896 0.798947 19.973 0.798947 20.1636C0.798947 20.3542 0.871475 20.5377 1.00181 20.6768C1.13214 20.8158 1.3105 20.9001 1.5007 20.9124H9.75151C9.89978 20.9121 10.0447 20.868 10.1679 20.7855C10.2911 20.7031 10.3872 20.586 10.444 20.4491C10.5008 20.3121 10.5158 20.1614 10.4871 20.0159C10.4584 19.8705 10.3873 19.7367 10.2828 19.6316V19.6363Z" fill="#696969"/>
<path d="M9.74996 23.1249C9.55095 23.1249 9.3601 23.204 9.21938 23.3447C9.07866 23.4854 8.9996 23.6762 8.9996 23.8753V26.1256C8.99939 26.3245 8.92027 26.5152 8.7796 26.6559C8.63892 26.7966 8.44819 26.8757 8.24924 26.8759H3.74865C3.54971 26.8757 3.35897 26.7966 3.2183 26.6559C3.07762 26.5152 2.9985 26.3245 2.99829 26.1256V23.1249C3.00494 23.0225 2.99051 22.9198 2.95589 22.8232C2.92127 22.7265 2.86719 22.6381 2.79701 22.5632C2.72683 22.4883 2.64203 22.4286 2.54786 22.3878C2.45368 22.347 2.35214 22.3259 2.24951 22.3259C2.14687 22.3259 2.04533 22.347 1.95116 22.3878C1.85699 22.4286 1.77219 22.4883 1.702 22.5632C1.63182 22.6381 1.57775 22.7265 1.54313 22.8232C1.5085 22.9198 1.49407 23.0225 1.50072 23.1249V26.1256C1.50135 26.7222 1.73863 27.2942 2.16051 27.7161C2.58239 28.1379 3.15439 28.3752 3.75102 28.3758H8.25239C8.84902 28.3752 9.42103 28.1379 9.8429 27.7161C10.2648 27.2942 10.5021 26.7222 10.5027 26.1256V23.8753C10.5027 23.7765 10.4832 23.6787 10.4453 23.5875C10.4075 23.4964 10.352 23.4135 10.2821 23.3438C10.2121 23.2741 10.1292 23.2189 10.0378 23.1813C9.94653 23.1438 9.8487 23.1246 9.74996 23.1249Z" fill="#696969"/>
<path d="M32.6005 10.4585C30.5331 9.37712 25.893 8.87268 18.0024 8.87268C10.1117 8.87268 5.47007 9.37712 3.40421 10.4585C1.0483 11.6881 0 13.7437 0 17.1219C0.0156014 19.2099 0.275905 21.2889 0.775583 23.3163C0.817896 23.4761 0.911913 23.6173 1.04296 23.718C1.174 23.8186 1.33469 23.8731 1.49993 23.8728H8.07347L10.911 25.2916C11.0153 25.3435 11.1302 25.3704 11.2467 25.3704H24.7493C24.8653 25.3706 24.9798 25.3436 25.0835 25.2916L27.9265 23.8728H34.5001C34.6653 23.8731 34.826 23.8186 34.957 23.718C35.0881 23.6173 35.1821 23.4761 35.2244 23.3163C35.7241 21.2889 35.9844 19.2099 36 17.1219C36.0039 13.7437 34.9556 11.6881 32.6005 10.4585ZM33.9113 22.3745H27.7547C27.6381 22.374 27.5231 22.401 27.4189 22.4533L24.5759 23.872H11.4288L8.59132 22.4533C8.487 22.4014 8.37206 22.3744 8.25555 22.3745H2.09423C1.71598 20.6487 1.51604 18.8886 1.49757 17.1219C1.49757 14.297 2.2503 12.7506 4.09467 11.7858C5.89175 10.8463 10.5697 10.371 18 10.371C25.4303 10.371 30.1082 10.844 31.9053 11.7858C33.7489 12.7506 34.5024 14.297 34.5024 17.1219C34.4848 18.8883 34.2868 20.6483 33.9113 22.3745Z" fill="#696969"/>
<path d="M34.5039 19.4172H28.0636L30.4038 17.0755C30.8271 16.6553 31.3987 16.4186 31.9951 16.4165H34.5032C34.6933 16.4042 34.8717 16.3199 35.0021 16.1808C35.1324 16.0418 35.2049 15.8583 35.2049 15.6677C35.2049 15.4771 35.1324 15.2937 35.0021 15.1546C34.8717 15.0155 34.6933 14.9313 34.5032 14.919H31.9951C31.5024 14.9177 31.0143 15.014 30.5591 15.2025C30.1039 15.3909 29.6905 15.6677 29.3428 16.0169L25.7211 19.6386C25.6165 19.7438 25.5454 19.8775 25.5168 20.023C25.4881 20.1684 25.5031 20.3192 25.5599 20.4561C25.6167 20.5931 25.7127 20.7101 25.836 20.7926C25.9592 20.8751 26.1041 20.9192 26.2523 20.9195H34.5032C34.6933 20.9071 34.8717 20.8229 35.0021 20.6838C35.1324 20.5447 35.2049 20.3613 35.2049 20.1707C35.2049 19.9801 35.1324 19.7966 35.0021 19.6576C34.8717 19.5185 34.6933 19.4342 34.5032 19.4219L34.5039 19.4172Z" fill="#696969"/>
<path d="M26.9334 15.3486C26.8728 15.2195 26.7767 15.1104 26.6564 15.0339C26.5361 14.9574 26.3965 14.9167 26.254 14.9166H9.75154C9.60888 14.9164 9.46911 14.9569 9.34867 15.0334C9.22822 15.1099 9.13211 15.2191 9.0716 15.3483C9.0111 15.4775 8.98872 15.6213 9.0071 15.7628C9.02548 15.9043 9.08386 16.0376 9.17537 16.147L12.9256 20.6476C12.996 20.7321 13.0841 20.8001 13.1836 20.8468C13.2832 20.8935 13.3918 20.9178 13.5018 20.9179H22.503C22.6129 20.9178 22.7215 20.8935 22.8211 20.8468C22.9206 20.8001 23.0087 20.7321 23.0791 20.6476L26.8294 16.147C26.921 16.0377 26.9795 15.9045 26.998 15.763C27.0164 15.6215 26.994 15.4777 26.9334 15.3486ZM22.1506 19.4172H13.8533L11.3524 16.4166H24.6516L22.1506 19.4172Z" fill="#696969"/>
<path d="M32.9433 10.9527C32.0897 8.99014 29.2333 2.52301 28.2402 1.67885C27.0027 0.627404 23.4574 0 18.7527 0H17.2551C12.5504 0 9.00589 0.630554 7.76763 1.67728C6.77451 2.52222 3.91652 8.98935 3.06448 10.9512C2.99347 11.1323 2.99547 11.3338 3.07008 11.5135C3.14468 11.6931 3.28606 11.8368 3.46447 11.9143C3.64287 11.9918 3.84439 11.9971 4.02661 11.9291C4.20883 11.861 4.35754 11.7249 4.44145 11.5494C6.13528 7.65021 8.20666 3.3183 8.73948 2.82173C9.31722 2.33148 11.7606 1.49993 17.252 1.49993H18.7495C24.2433 1.49993 26.6867 2.33069 27.262 2.81858C27.7972 3.3183 29.8694 7.64943 31.5632 11.5494C31.6424 11.732 31.791 11.8757 31.9761 11.9488C32.1612 12.0218 32.3678 12.0184 32.5504 11.9392C32.733 11.8599 32.8767 11.7114 32.9498 11.5263C33.0229 11.3412 33.0194 11.1346 32.9402 10.952L32.9433 10.9527Z" fill="#696969"/>
<path d="M33.7536 22.3745C33.5546 22.3745 33.3638 22.4536 33.2231 22.5943C33.0823 22.735 33.0033 22.9259 33.0033 23.1249V26.1255C33.0031 26.3245 32.9239 26.5152 32.7833 26.6559C32.6426 26.7965 32.4519 26.8757 32.2529 26.8759H27.7523C27.5534 26.8757 27.3626 26.7965 27.222 26.6559C27.0813 26.5152 27.0022 26.3245 27.0019 26.1255V23.8752C27.0086 23.7728 26.9942 23.6701 26.9596 23.5735C26.9249 23.4769 26.8708 23.3884 26.8007 23.3135C26.7305 23.2386 26.6457 23.1789 26.5515 23.1381C26.4573 23.0973 26.3558 23.0763 26.2532 23.0763C26.1505 23.0763 26.049 23.0973 25.9548 23.1381C25.8606 23.1789 25.7758 23.2386 25.7057 23.3135C25.6355 23.3884 25.5814 23.4769 25.5468 23.5735C25.5122 23.6701 25.4977 23.7728 25.5044 23.8752V26.1255C25.505 26.7222 25.7423 27.2942 26.1642 27.716C26.5861 28.1379 27.1581 28.3752 27.7547 28.3758H32.2553C32.8519 28.3752 33.4239 28.1379 33.8458 27.716C34.2677 27.2942 34.5049 26.7222 34.5056 26.1255V23.1249C34.5056 23.0262 34.4861 22.9285 34.4483 22.8374C34.4105 22.7462 34.3551 22.6634 34.2852 22.5937C34.2154 22.524 34.1325 22.4688 34.0413 22.4312C33.95 22.3935 33.8523 22.3743 33.7536 22.3745Z" fill="#696969"/>
</svg>
