<svg width="21" height="18" viewBox="0 0 21 18" fill="none" xmlns="http://www.w3.org/2000/svg">
<path d="M18.0847 2.4141C17.6365 1.96564 17.1043 1.60988 16.5185 1.36716C15.9327 1.12444 15.3048 0.999512 14.6707 0.999512C14.0367 0.999512 13.4088 1.12444 12.823 1.36716C12.2372 1.60988 11.705 1.96564 11.2567 2.4141L10.3267 3.3441L9.39674 2.4141C8.48669 1.53188 7.26621 1.04292 5.99877 1.05276C4.73133 1.0626 3.51859 1.57045 2.62234 2.4667C1.7261 3.36294 1.21824 4.57568 1.2084 5.84313C1.19856 7.11057 1.68752 8.33105 2.56975 9.2411L3.49974 10.1711L10.3277 17.0011L17.1557 10.1731L18.0857 9.2431C18.5342 8.79485 18.89 8.26262 19.1327 7.67684C19.3754 7.09105 19.5003 6.46318 19.5003 5.8291C19.5003 5.19502 19.3754 4.56716 19.1327 3.98137C18.89 3.39559 18.5342 2.86336 18.0857 2.4151L18.0847 2.4141Z" stroke="#2D3DDF" stroke-width="1.5" stroke-linecap="round" stroke-linejoin="round"/>
</svg>
