<svg width="30" height="34" viewBox="0 0 30 34" fill="none" xmlns="http://www.w3.org/2000/svg">
<path d="M8 16C12.4183 16 16 12.4183 16 8C16 3.58172 12.4183 0 8 0C3.58172 0 0 3.58172 0 8C0 12.4183 3.58172 16 8 16Z" fill="white"/>
<path d="M7.5 34C11.0899 34 14 31.0899 14 27.5C14 23.9101 11.0899 21 7.5 21C3.91015 21 1 23.9101 1 27.5C1 31.0899 3.91015 34 7.5 34Z" fill="white"/>
<path d="M23.5 28C27.0899 28 30 25.0899 30 21.5C30 17.9101 27.0899 15 23.5 15C19.9101 15 17 17.9101 17 21.5C17 25.0899 19.9101 28 23.5 28Z" fill="white"/>
</svg>
