<svg width="809" height="480" viewBox="0 0 809 480" fill="none" xmlns="http://www.w3.org/2000/svg">
<path d="M674.956 307.998C599.816 307.998 540.956 294.381 540.956 276.998C540.956 266.576 561.812 257.277 598.176 251.487C598.436 251.449 598.701 251.515 598.912 251.671C599.124 251.827 599.266 252.06 599.307 252.319C599.348 252.579 599.286 252.844 599.133 253.058C598.98 253.272 598.749 253.417 598.49 253.462C564.235 258.917 542.956 267.936 542.956 276.998C542.956 292.718 603.404 305.998 674.956 305.998C746.508 305.998 806.956 292.718 806.956 276.998C806.956 267.898 785.54 258.857 751.066 253.405C750.804 253.363 750.569 253.219 750.413 253.005C750.257 252.79 750.193 252.522 750.234 252.26C750.276 251.998 750.42 251.763 750.635 251.607C750.849 251.451 751.117 251.387 751.379 251.429C787.97 257.216 808.956 266.535 808.956 276.997C808.956 294.381 750.096 307.998 674.956 307.998Z" fill="#CCCCCC"/>
<path d="M608.479 313.836C615.277 325.477 625.014 335.13 636.714 341.827C648.415 348.524 661.669 352.03 675.15 351.996C688.632 351.962 701.868 348.389 713.534 341.633C725.201 334.877 734.889 325.175 741.629 313.5C697.285 316.051 652.834 316.163 608.479 313.834V313.836Z" fill="#E6E6E6"/>
<path d="M748.998 292.121C752.277 280.628 752.836 268.53 750.631 256.785C748.425 245.039 743.516 233.968 736.292 224.448C729.068 214.927 719.726 207.219 709.008 201.934C698.289 196.648 686.487 193.93 674.537 193.995C662.586 194.06 650.814 196.905 640.153 202.306C629.492 207.708 620.235 215.516 613.114 225.114C605.993 234.712 601.204 245.835 599.126 257.604C597.048 269.373 597.738 281.464 601.141 292.921C650.254 299.049 699.954 298.78 748.998 292.121Z" fill="#E6E6E6"/>
<path d="M290.456 8.99756C290.456 7.37044 290.014 5.77387 289.178 4.37773C288.343 2.9816 287.144 1.83813 285.71 1.06899C284.276 0.299846 282.661 -0.0661863 281.036 0.0098286C279.41 0.0858435 277.836 0.601064 276.48 1.50067C275.124 2.40028 274.038 3.65062 273.336 5.11865C272.634 6.58669 272.344 8.21751 272.495 9.83757C272.647 11.4576 273.234 13.0063 274.196 14.3189C275.158 15.6315 276.457 16.6588 277.956 17.2916V63.9976H284.956V17.2916C286.587 16.6032 287.978 15.4492 288.957 13.9739C289.935 12.4987 290.457 10.7677 290.456 8.99756Z" fill="#CCCCCC"/>
<path d="M340.959 232.998C338.268 232.995 335.606 232.45 333.131 231.395C330.656 230.34 328.419 228.797 326.553 226.858C324.687 224.92 323.232 222.625 322.273 220.111C321.314 217.597 320.872 214.915 320.973 212.227C321.373 201.627 330.554 192.998 341.437 192.998H396.378L441.59 172.983C442.803 172.446 444.179 172.413 445.417 172.891C446.654 173.368 447.652 174.317 448.19 175.53L460.334 202.963C460.87 204.176 460.903 205.552 460.426 206.79C459.948 208.027 458.999 209.025 457.786 209.563L413.255 229.277C408.845 231.236 404.081 232.272 399.255 232.323L340.959 232.998Z" fill="#CCCCCC"/>
<path d="M207.778 338.341C207.518 338.341 207.258 338.319 207.001 338.274L177.43 333.227C176.839 333.127 176.273 332.908 175.767 332.586C175.261 332.263 174.825 331.842 174.484 331.348C174.143 330.854 173.905 330.297 173.782 329.71C173.66 329.122 173.656 328.516 173.771 327.928L196.917 209.877C197.806 204.795 200.672 200.272 204.888 197.299C209.104 194.325 214.327 193.144 219.412 194.014C224.497 194.883 229.031 197.732 232.02 201.937C235.009 206.142 236.21 211.36 235.359 216.449L212.169 334.704C211.975 335.727 211.43 336.65 210.629 337.313C209.827 337.977 208.819 338.34 207.778 338.341Z" fill="#CCCCCC"/>
<path d="M191.957 363.998C201.898 363.998 209.957 355.939 209.957 345.998C209.957 336.056 201.898 327.998 191.957 327.998C182.016 327.998 173.957 336.056 173.957 345.998C173.957 355.939 182.016 363.998 191.957 363.998Z" fill="#E6E6E6"/>
<path d="M279.28 191.675C316.283 191.675 346.28 161.678 346.28 124.675C346.28 87.6715 316.283 57.6746 279.28 57.6746C242.277 57.6746 212.28 87.6715 212.28 124.675C212.28 161.678 242.277 191.675 279.28 191.675Z" fill="#E6E6E6"/>
<path d="M279.28 191.675C316.283 191.675 346.28 161.678 346.28 124.675C346.28 87.6715 316.283 57.6746 279.28 57.6746C242.277 57.6746 212.28 87.6715 212.28 124.675C212.28 161.678 242.277 191.675 279.28 191.675Z" fill="#E6E6E6"/>
<path d="M279.28 175.675C307.447 175.675 330.28 152.841 330.28 124.675C330.28 96.508 307.447 73.6746 279.28 73.6746C251.114 73.6746 228.28 96.508 228.28 124.675C228.28 152.841 251.114 175.675 279.28 175.675Z" fill="#BEC3FF"/>
<path d="M285.242 146.084C281.936 145.992 277.822 145.877 274.652 143.562C273.708 142.844 272.933 141.928 272.38 140.879C271.827 139.83 271.511 138.673 271.452 137.489C271.395 136.647 271.533 135.803 271.855 135.024C272.178 134.245 272.677 133.55 273.312 132.996C274.968 131.596 277.385 131.269 279.99 132.035L277.29 112.309L279.271 112.038L282.444 135.228L280.789 134.469C278.871 133.589 276.237 133.141 274.601 134.524C274.199 134.886 273.885 135.336 273.685 135.839C273.485 136.342 273.404 136.884 273.448 137.424C273.497 138.305 273.734 139.166 274.145 139.947C274.556 140.728 275.13 141.412 275.829 141.952C278.296 143.752 281.575 143.986 285.295 144.09L285.242 146.084Z" fill="#2F2E41"/>
<path d="M267.493 114.01H256.721V116.01H267.493V114.01Z" fill="#2F2E41"/>
<path d="M301.493 114.01H290.721V116.01H301.493V114.01Z" fill="#2F2E41"/>
<path opacity="0.2" d="M244.956 124.998C244.957 112.812 249.32 101.028 257.256 91.7808C265.192 82.5332 276.176 76.4321 288.221 74.5816C280.943 73.3517 273.484 73.7166 266.361 75.651C259.237 77.5855 252.619 81.0434 246.962 85.7858C241.306 90.5282 236.746 96.4422 233.599 103.119C230.451 109.796 228.791 117.076 228.732 124.458C228.673 131.839 230.218 139.145 233.259 145.871C236.3 152.597 240.765 158.583 246.345 163.414C251.926 168.246 258.489 171.809 265.58 173.856C272.672 175.903 280.124 176.387 287.421 175.273C275.546 173.257 264.767 167.103 256.995 157.901C249.222 148.699 244.957 137.043 244.956 124.998Z" fill="black"/>
<path d="M330.278 338.498H228.278C223.904 338.493 219.71 336.753 216.617 333.659C213.523 330.566 211.783 326.372 211.778 321.998V206.998C211.783 202.623 213.523 198.429 216.617 195.336C219.71 192.243 223.904 190.503 228.278 190.498H243.778V194.998C243.782 198.046 244.994 200.97 247.15 203.125C249.306 205.281 252.229 206.494 255.278 206.498H303.278C306.327 206.494 309.25 205.281 311.406 203.125C313.562 200.97 314.775 198.046 314.778 194.998V190.498H330.278C334.653 190.503 338.847 192.243 341.94 195.336C345.033 198.429 346.773 202.623 346.778 206.998V321.998C346.773 326.372 345.033 330.566 341.94 333.659C338.847 336.753 334.653 338.493 330.278 338.498Z" fill="#E6E6E6"/>
<path d="M343.965 448.998H303.956V402.809L251.705 322.693L285.205 300.842L337.227 380.61C340.952 386.317 342.99 392.96 343.106 399.775L343.965 448.998Z" fill="#E6E6E6"/>
<path d="M273.456 479.498H234.456V362.498H273.456V479.498Z" fill="#E6E6E6"/>
<path d="M322.278 373.498H236.278C234.025 373.495 231.864 372.599 230.271 371.005C228.677 369.412 227.781 367.251 227.778 364.998V332.998C227.781 330.744 228.677 328.584 230.271 326.99C231.864 325.397 234.025 324.5 236.278 324.498H322.278C324.532 324.5 326.693 325.396 328.286 326.99C329.88 328.583 330.776 330.744 330.778 332.998V364.998C330.776 367.251 329.879 369.412 328.286 371.005C326.692 372.599 324.532 373.495 322.278 373.498Z" fill="#E6E6E6"/>
<path d="M350.956 467.498H304.456V436.498H350.956C355.067 436.498 359.009 438.131 361.916 441.037C364.823 443.944 366.456 447.887 366.456 451.998C366.456 456.108 364.823 460.051 361.916 462.958C359.009 465.865 355.067 467.498 350.956 467.498Z" fill="#CCCCCC"/>
<path d="M280.956 479.498H234.456V448.498H280.956C285.067 448.498 289.009 450.131 291.916 453.037C294.823 455.944 296.456 459.887 296.456 463.998C296.456 468.108 294.823 472.051 291.916 474.958C289.009 477.865 285.067 479.498 280.956 479.498Z" fill="#CCCCCC"/>
<path d="M327.956 241.498H290.956C290.028 241.498 289.138 241.129 288.481 240.472C287.825 239.816 287.456 238.926 287.456 237.998C287.456 237.069 287.825 236.179 288.481 235.523C289.138 234.866 290.028 234.498 290.956 234.498H327.956C328.884 234.498 329.775 234.866 330.431 235.523C331.087 236.179 331.456 237.069 331.456 237.998C331.456 238.926 331.087 239.816 330.431 240.472C329.775 241.129 328.884 241.498 327.956 241.498Z" fill="white"/>
<path d="M327.956 253.998H290.956C290.028 253.998 289.138 253.629 288.481 252.972C287.825 252.316 287.456 251.426 287.456 250.498C287.456 249.569 287.825 248.679 288.481 248.023C289.138 247.366 290.028 246.998 290.956 246.998H327.956C328.884 246.998 329.775 247.366 330.431 248.023C331.087 248.679 331.456 249.569 331.456 250.498C331.456 251.426 331.087 252.316 330.431 252.972C329.775 253.629 328.884 253.998 327.956 253.998Z" fill="white"/>
<path d="M391 479.998H172C171.735 479.998 171.48 479.892 171.293 479.705C171.105 479.517 171 479.263 171 478.998C171 478.732 171.105 478.478 171.293 478.29C171.48 478.103 171.735 477.998 172 477.998H391C391.265 477.998 391.52 478.103 391.707 478.29C391.895 478.478 392 478.732 392 478.998C392 479.263 391.895 479.517 391.707 479.705C391.52 479.892 391.265 479.998 391 479.998Z" fill="#3F3D56"/>
<path d="M462.957 201.998C472.898 201.998 480.957 193.939 480.957 183.998C480.957 174.056 472.898 165.998 462.957 165.998C453.016 165.998 444.957 174.056 444.957 183.998C444.957 193.939 453.016 201.998 462.957 201.998Z" fill="#E6E6E6"/>
<path d="M468.456 256.498C466.865 256.496 465.34 255.863 464.215 254.738C463.091 253.613 462.458 252.088 462.456 250.498V34.4976C462.456 32.9063 463.088 31.3801 464.213 30.2549C465.339 29.1297 466.865 28.4976 468.456 28.4976C470.047 28.4976 471.573 29.1297 472.699 30.2549C473.824 31.3801 474.456 32.9063 474.456 34.4976V250.498C474.454 252.088 473.821 253.613 472.697 254.738C471.572 255.863 470.047 256.496 468.456 256.498Z" fill="#3F3D56"/>
<path d="M650.616 30.3376C645.346 25.7276 627.246 11.3776 603.896 8.75757C586.426 6.80757 566.016 11.4176 545.846 31.5976C529.666 47.7776 514.406 55.4476 500.486 54.4076C486.276 53.3376 476.826 43.2376 472.456 37.3076C472.15 36.8836 471.715 36.5693 471.216 36.4108C470.718 36.2524 470.181 36.2583 469.686 36.4276C469.181 36.5863 468.74 36.9033 468.428 37.3319C468.117 37.7604 467.951 38.2778 467.956 38.8076V113.468C467.957 113.941 468.092 114.404 468.345 114.804C468.598 115.204 468.959 115.524 469.386 115.728C474.836 118.308 494.466 126.878 514.226 126.878C525.816 126.878 537.466 123.928 546.306 115.078C546.396 114.988 546.476 114.908 546.566 114.828C562.226 99.5876 596.746 102.718 621.936 107.698C632.356 109.758 641.176 112.128 646.406 113.648C647.076 113.841 647.781 113.876 648.466 113.75C649.152 113.624 649.798 113.34 650.355 112.921C650.912 112.502 651.363 111.959 651.674 111.335C651.985 110.712 652.147 110.024 652.146 109.328V33.7276C652.147 33.0862 652.01 32.4522 651.747 31.8676C651.483 31.2831 651.097 30.7615 650.616 30.3376Z" fill="#BEC3FF"/>
<path d="M690.957 242.998C695.928 242.998 699.957 238.968 699.957 233.998C699.957 229.027 695.928 224.998 690.957 224.998C685.986 224.998 681.957 229.027 681.957 233.998C681.957 238.968 685.986 242.998 690.957 242.998Z" fill="white"/>
<path d="M674.957 341.998C679.928 341.998 683.957 337.968 683.957 332.998C683.957 328.027 679.928 323.998 674.957 323.998C669.986 323.998 665.957 328.027 665.957 332.998C665.957 337.968 669.986 341.998 674.957 341.998Z" fill="white"/>
<path d="M645.957 279.998C654.241 279.998 660.957 273.282 660.957 264.998C660.957 256.713 654.241 249.998 645.957 249.998C637.673 249.998 630.957 256.713 630.957 264.998C630.957 273.282 637.673 279.998 645.957 279.998Z" fill="white"/>
</svg>
