<svg width="75" height="75" viewBox="0 0 75 75" fill="none" xmlns="http://www.w3.org/2000/svg">
<g filter="url(#filter0_d_2_228)">
<path d="M27.6791 9C24.9349 9 22.2738 9.53701 19.7698 10.5961C17.3503 11.6195 15.1768 13.085 13.3099 14.9519C11.443 16.8188 9.97753 18.9922 8.95414 21.4118C7.89504 23.9158 7.35803 26.5768 7.35803 29.321C7.35803 32.0652 7.89504 34.7263 8.95414 37.2303C9.97753 39.6499 11.443 41.8233 13.3099 43.6902C15.1768 45.5571 17.3503 47.0226 19.7698 48.046C22.2738 49.1051 24.9349 49.6421 27.6791 49.6421C30.4233 49.6421 33.0843 49.1051 35.5883 48.046C38.0079 47.0226 40.1813 45.5571 42.0482 43.6902C43.9151 41.8233 45.3806 39.6499 46.404 37.2303C47.4631 34.7263 48.0001 32.0652 48.0001 29.321C48.0001 26.5768 47.4631 23.9158 46.404 21.4118C45.3806 18.9922 43.9151 16.8188 42.0482 14.9519C40.1813 13.085 38.0079 11.6195 35.5883 10.5961C33.0843 9.53701 30.4233 9 27.6791 9ZM27.6791 7C40.0066 7 50.0001 16.9935 50.0001 29.321C50.0001 41.6486 40.0066 51.6421 27.6791 51.6421C15.3515 51.6421 5.35803 41.6486 5.35803 29.321C5.35803 16.9935 15.3515 7 27.6791 7Z" fill="white"/>
</g>
<path d="M32.565 29.4779C32.5653 29.3583 32.5413 29.2398 32.4946 29.1296C32.4478 29.0195 32.3793 28.9199 32.293 28.8369L26.95 23.4939C26.8635 23.4151 26.7623 23.3542 26.6522 23.3145C26.5421 23.2748 26.4252 23.2572 26.3083 23.2627C26.1914 23.2682 26.0767 23.2966 25.9708 23.3464C25.8649 23.3962 25.7698 23.4664 25.691 23.5529C25.6122 23.6395 25.5513 23.7407 25.5116 23.8508C25.4719 23.9609 25.4543 24.0778 25.4598 24.1947C25.4653 24.3116 25.4937 24.4263 25.5435 24.5322C25.5933 24.6381 25.6635 24.7331 25.75 24.8119L30.415 29.4769L25.689 34.2029C25.5221 34.3699 25.4283 34.5963 25.4283 34.8324C25.4283 35.0686 25.5221 35.295 25.689 35.4619C25.856 35.6289 26.0824 35.7227 26.3185 35.7227C26.5546 35.7227 26.7811 35.6289 26.948 35.4619L32.291 30.1189C32.3773 30.036 32.4458 29.9364 32.4926 29.8263C32.5393 29.7161 32.5633 29.5976 32.563 29.4779H32.565Z" fill="white"/>
<defs>
<filter id="filter0_d_2_228" x="0.358032" y="0" width="74.6421" height="74.6421" filterUnits="userSpaceOnUse" color-interpolation-filters="sRGB">
<feFlood flood-opacity="0" result="BackgroundImageFix"/>
<feColorMatrix in="SourceAlpha" type="matrix" values="0 0 0 0 0 0 0 0 0 0 0 0 0 0 0 0 0 0 127 0" result="hardAlpha"/>
<feOffset dx="10" dy="8"/>
<feGaussianBlur stdDeviation="7.5"/>
<feColorMatrix type="matrix" values="0 0 0 0 0.905882 0 0 0 0 0.917647 0 0 0 0 0.941176 0 0 0 1 0"/>
<feBlend mode="normal" in2="BackgroundImageFix" result="effect1_dropShadow_2_228"/>
<feBlend mode="normal" in="SourceGraphic" in2="effect1_dropShadow_2_228" result="shape"/>
</filter>
</defs>
</svg>
