<svg width="32" height="32" viewBox="0 0 32 32" fill="none" xmlns="http://www.w3.org/2000/svg">
<path d="M16.398 4C15.2947 3.99921 14.2021 4.21595 13.1826 4.63781C12.1631 5.05967 11.2368 5.67838 10.4566 6.45855C9.67642 7.23871 9.05771 8.16504 8.63585 9.18453C8.21399 10.204 7.99726 11.2967 7.99805 12.4C7.99805 18.7 16.398 28 16.398 28C16.398 28 24.798 18.7 24.798 12.4C24.7988 11.2967 24.5821 10.204 24.1602 9.18453C23.7384 8.16504 23.1197 7.23871 22.3395 6.45855C21.5593 5.67838 20.633 5.05967 19.6135 4.63781C18.594 4.21595 17.5014 3.99921 16.398 4ZM16.398 15.4C15.8047 15.4 15.2247 15.2241 14.7313 14.8944C14.238 14.5648 13.8535 14.0962 13.6264 13.5481C13.3993 12.9999 13.3399 12.3967 13.4557 11.8147C13.5714 11.2328 13.8572 10.6982 14.2767 10.2787C14.6963 9.85912 15.2308 9.5734 15.8128 9.45765C16.3947 9.34189 16.9979 9.4013 17.5461 9.62836C18.0943 9.85543 18.5628 10.2399 18.8925 10.7333C19.2221 11.2266 19.398 11.8067 19.398 12.4C19.398 13.1957 19.082 13.9587 18.5194 14.5213C17.9568 15.0839 17.1937 15.4 16.398 15.4Z" stroke="#8E8E8E" stroke-width="2"/>
</svg>
