<svg width="38" height="36" viewBox="0 0 38 36" fill="none" xmlns="http://www.w3.org/2000/svg">
<path d="M36.8276 13.5525C36.5724 12.9012 36.09 12.3643 35.4697 12.0409C34.8493 11.7176 34.133 11.6297 33.4528 11.7934L31.4931 10.6136C31.1272 10.3952 30.7175 10.2606 30.2934 10.2194C29.8693 10.1783 29.4413 10.2316 29.0403 10.3755L21.8732 12.9513L15.9869 4.73724C15.9138 4.63661 15.8101 4.56239 15.6913 4.5257C15.5724 4.48902 15.4449 4.49185 15.3278 4.53378L12.1226 5.68673C12.0527 5.71123 11.9883 5.74938 11.9333 5.79895C11.8782 5.84852 11.8335 5.90854 11.8019 5.9755C11.7702 6.04247 11.7521 6.11507 11.7487 6.18907C11.7453 6.26308 11.7567 6.33702 11.7821 6.40661L15.0883 15.3886L7.96151 17.9495L4.13318 13.7206C4.05682 13.6367 3.95723 13.5772 3.84704 13.55C3.73686 13.5227 3.62106 13.5287 3.51432 13.5673L1.37444 14.3367C1.30453 14.3612 1.24018 14.3993 1.18512 14.4489C1.13007 14.4985 1.08541 14.5585 1.05373 14.6254C1.02205 14.6924 1.00399 14.765 1.00059 14.839C0.99719 14.913 1.00852 14.987 1.03392 15.0566L4.14872 23.5087C4.18888 23.618 4.26181 23.7122 4.35753 23.7784C4.45325 23.8447 4.5671 23.8798 4.68352 23.8789H4.68846L16.7513 23.7326C16.8155 23.7319 16.879 23.7201 16.9392 23.698L18.0074 23.313L21.1229 31.7658C21.1635 31.8748 21.2366 31.9687 21.3322 32.0349C21.4278 32.1011 21.5414 32.1364 21.6577 32.136C21.7242 32.1358 21.7902 32.1241 21.8527 32.1014L25.0629 30.947C25.1796 30.9058 25.2794 30.8271 25.3468 30.7232C25.4141 30.6193 25.4452 30.4961 25.4352 30.3727L24.6425 20.9301L35.1286 17.159C35.6744 16.9631 36.1468 16.604 36.4816 16.1305C36.8164 15.6569 36.9974 15.0918 37 14.5119C36.9996 14.1845 36.9415 13.8597 36.8283 13.5525H36.8276ZM13.0466 6.55073L15.3073 5.73759L20.7633 13.3497L16.1572 15.005L13.0466 6.55073ZM3.85554 19.4253L2.30132 15.2014L3.5447 14.7549L6.80785 18.3642L3.85554 19.4253ZM22.0004 30.8531L18.1063 20.2879L23.2897 18.4243L24.2667 30.0392L22.0004 30.8531ZM34.7393 16.1042L24.545 19.7701L24.3621 17.5984C24.3544 17.5125 24.3269 17.4295 24.2818 17.356C24.2367 17.2824 24.1752 17.2203 24.1021 17.1745C24.028 17.1282 23.9444 17.0992 23.8576 17.0897C23.7707 17.0801 23.6829 17.0903 23.6005 17.1194L17.1816 19.4267C17.1117 19.4517 17.0473 19.4902 16.9923 19.54C16.9373 19.5898 16.8926 19.65 16.8608 19.7171C16.8292 19.7839 16.8112 19.8564 16.8079 19.9303C16.8047 20.0042 16.8162 20.078 16.8418 20.1473L17.6189 22.2597L16.6411 22.6129L5.07914 22.7542L4.24551 20.4822L29.4288 11.4324C29.6698 11.3456 29.9269 11.3133 30.1819 11.3377C30.4368 11.3622 30.6831 11.4427 30.9032 11.5737L31.4486 11.9022L29.7771 12.5034L30.1664 13.5631L32.6927 12.6525L33.0784 12.8849C33.1509 12.9285 33.2321 12.9557 33.3162 12.9643C33.4003 12.973 33.4853 12.963 33.5652 12.935C33.989 12.7865 34.4539 12.808 34.8622 12.9949C35.2706 13.1818 35.5906 13.5197 35.7552 13.9375C35.8325 14.1465 35.8674 14.3688 35.8579 14.5915C35.8484 14.8141 35.7946 15.0327 35.6998 15.2343C35.605 15.436 35.471 15.6168 35.3056 15.7661C35.1402 15.9155 34.9467 16.0304 34.7365 16.1042H34.7393Z" fill="#696969" stroke="#707070" stroke-width="0.5"/>
<path d="M25.9389 14.0647L27.1093 13.6389L27.5354 14.81L26.365 15.2358L25.9389 14.0647Z" fill="#696969" stroke="#707070" stroke-width="0.5"/>
<path d="M23.8075 14.8489L24.9779 14.423L25.404 15.5941L24.2336 16.02L23.8075 14.8489Z" fill="#696969" stroke="#707070" stroke-width="0.5"/>
<path d="M21.6768 15.6344L22.8472 15.2086L23.2733 16.3797L22.1028 16.8055L21.6768 15.6344Z" fill="#696969" stroke="#707070" stroke-width="0.5"/>
<path d="M19.5447 16.4186L20.7152 15.9927L21.1413 17.1638L19.9708 17.5897L19.5447 16.4186Z" fill="#696969" stroke="#707070" stroke-width="0.5"/>
<path d="M17.4133 17.2035L18.5837 16.7776L19.0098 17.9487L17.8394 18.3746L17.4133 17.2035Z" fill="#696969" stroke="#707070" stroke-width="0.5"/>
<path d="M15.2819 17.9891L16.4524 17.5633L16.8784 18.7344L15.708 19.1602L15.2819 17.9891Z" fill="#696969" stroke="#707070" stroke-width="0.5"/>
<path d="M13.1505 18.7733L14.3209 18.3475L14.747 19.5186L13.5765 19.9444L13.1505 18.7733Z" fill="#696969" stroke="#707070" stroke-width="0.5"/>
<path d="M11.0142 19.5652L12.1853 19.1391L12.6113 20.3102L11.4402 20.7363L11.0142 19.5652Z" fill="#696969" stroke="#707070" stroke-width="0.5"/>
<path d="M8.88208 20.3494L10.0532 19.9233L10.4793 21.0944L9.30816 21.5205L8.88208 20.3494Z" fill="#696969" stroke="#707070" stroke-width="0.5"/>
</svg>
