<svg width="96" height="102" viewBox="0 0 96 102" fill="none" xmlns="http://www.w3.org/2000/svg">
<path d="M57.537 54.2221L43.937 85.6971L36.914 87.5031L41.777 58.4241L23.327 63.3491L18.971 74.7771L13.834 76.1311L15.281 60.4221L9.98102 46.7981L15.022 45.4191L21.978 53.5591L40.309 48.6031L27.947 25.3531L34.688 23.4711L55.962 44.3711L75.015 39.2201C75.7055 39.0295 76.426 38.9718 77.138 39.0501C77.794 39.1227 78.4286 39.3268 79.004 39.6501C79.5714 39.9674 80.0605 40.4079 80.4352 40.9392C80.8099 41.4705 81.0606 42.079 81.169 42.7201C81.2854 43.3978 81.2581 44.0925 81.089 44.7591C80.9178 45.4339 80.6247 46.0717 80.224 46.6411C79.3794 47.8476 78.1372 48.7184 76.715 49.1011L57.535 54.2211L57.537 54.2221Z" fill="white"/>
</svg>