<svg width="32" height="32" viewBox="0 0 32 32" fill="none" xmlns="http://www.w3.org/2000/svg">
<path d="M20.998 25V23C20.998 21.9391 20.5766 20.9217 19.8264 20.1716C19.0763 19.4214 18.0589 19 16.998 19H8.99799C7.93712 19 6.9197 19.4214 6.16956 20.1716C5.41941 20.9217 4.99799 21.9391 4.99799 23V25" stroke="#8E8E8E" stroke-width="2" stroke-linecap="round" stroke-linejoin="round"/>
<path d="M12.996 15C15.2051 15 16.996 13.2091 16.996 11C16.996 8.79086 15.2051 7 12.996 7C10.7868 7 8.99597 8.79086 8.99597 11C8.99597 13.2091 10.7868 15 12.996 15Z" stroke="#8E8E8E" stroke-width="2" stroke-linecap="round" stroke-linejoin="round"/>
<path d="M26.998 25V23C26.9973 22.1137 26.7023 21.2528 26.1594 20.5523C25.6164 19.8519 24.8561 19.3516 23.998 19.13" stroke="#8E8E8E" stroke-width="2" stroke-linecap="round" stroke-linejoin="round"/>
<path d="M19.998 7.13C20.8584 7.35031 21.621 7.85071 22.1656 8.55232C22.7102 9.25392 23.0058 10.1168 23.0058 11.005C23.0058 11.8932 22.7102 12.7561 22.1656 13.4577C21.621 14.1593 20.8584 14.6597 19.998 14.88" stroke="#8E8E8E" stroke-width="2" stroke-linecap="round" stroke-linejoin="round"/>
</svg>
