<svg width="80" height="13" viewBox="0 0 80 13" fill="none" xmlns="http://www.w3.org/2000/svg">
<path opacity="0.999" d="M6 10.146L9.708 12.5L8.727 8.06L12 5.075L7.685 4.685L6 0.5L4.315 4.685L0 5.075L3.273 8.06L2.292 12.5L6 10.146Z" fill="#FFC362"/>
<path d="M23 10.146L26.708 12.5L25.727 8.06L29 5.075L24.685 4.685L23 0.5L21.315 4.685L17 5.075L20.273 8.06L19.292 12.5L23 10.146Z" fill="#FFC362"/>
<path d="M40 10.146L43.708 12.5L42.727 8.06L46 5.075L41.685 4.685L40 0.5L38.315 4.685L34 5.075L37.273 8.06L36.292 12.5L40 10.146Z" fill="#FFC362"/>
<path d="M57 10.146L60.708 12.5L59.727 8.06L63 5.075L58.685 4.685L57 0.5L55.315 4.685L51 5.075L54.273 8.06L53.292 12.5L57 10.146Z" fill="#FFC362"/>
<path opacity="0.3" d="M74 10.146L77.708 12.5L76.727 8.06L80 5.075L75.685 4.685L74 0.5L72.315 4.685L68 5.075L71.273 8.06L70.292 12.5L74 10.146Z" fill="#727C8E"/>
</svg>
