<svg width="37" height="24" viewBox="0 0 37 24" fill="none" xmlns="http://www.w3.org/2000/svg">
<path d="M15.236 10.8H16.436V12.0001H15.236V10.8Z" fill="white"/>
<path d="M17.636 10.8H18.836V12.0001H17.636V10.8Z" fill="white"/>
<path d="M20.0359 10.8H21.236V12.0001H20.0359V10.8Z" fill="white"/>
<path d="M15.236 13.2H16.436V14.4H15.236V13.2Z" fill="white"/>
<path d="M17.636 13.2H18.836V14.4H17.636V13.2Z" fill="white"/>
<path d="M20.0359 13.2H21.236V14.4H20.0359V13.2Z" fill="white"/>
<path d="M15.236 15.6H16.436V16.8H15.236V15.6Z" fill="white"/>
<path d="M17.636 15.6H18.836V16.8H17.636V15.6Z" fill="white"/>
<path d="M20.0359 15.6H21.236V16.8H20.0359V15.6Z" fill="white"/>
<path d="M15.236 6H16.436V7.20001H15.236V6Z" fill="white"/>
<path d="M17.636 6H18.836V7.20001H17.636V6Z" fill="white"/>
<path d="M20.0359 6H21.236V7.20001H20.0359V6Z" fill="white"/>
<path d="M15.236 8.40002H16.436V9.60004H15.236V8.40002Z" fill="white"/>
<path d="M17.636 8.40002H18.836V9.60004H17.636V8.40002Z" fill="white"/>
<path d="M20.0359 8.40002H21.236V9.60004H20.0359V8.40002Z" fill="white"/>
<path d="M9.83594 8.40002H11.6359V9.60004H9.83594V8.40002Z" fill="white"/>
<path d="M9.83594 11.4H11.6359V12.6H9.83594V11.4Z" fill="white"/>
<path d="M9.83594 14.4H11.6359V15.6H9.83594V14.4Z" fill="white"/>
<path d="M9.83594 17.4H11.6359V18.6H9.83594V17.4Z" fill="white"/>
<path d="M33.836 16.2H32.636C31.9994 16.2 31.389 16.4529 30.9389 16.9029C30.4888 17.353 30.236 17.9635 30.236 18.6V19.836C29.8033 19.9051 29.3926 20.0735 29.036 20.328V17.4H27.836V20.4H23.636V6.60001H27.836V16.2H29.036V6C29.036 5.84087 28.9727 5.68825 28.8602 5.57573C28.7477 5.46321 28.5951 5.39999 28.436 5.39999H23.636V2.39999C23.636 2.24086 23.5727 2.08826 23.4602 1.97574C23.3477 1.86322 23.1951 1.8 23.036 1.8H21.236V0.600006C21.236 0.521213 21.2204 0.443187 21.1903 0.370392C21.1601 0.297596 21.1159 0.231451 21.0602 0.175735C21.0045 0.12002 20.9384 0.0758224 20.8656 0.0456696C20.7928 0.0155167 20.7148 0 20.636 0H15.836C15.6768 0 15.5242 0.0632136 15.4117 0.175735C15.2992 0.288257 15.236 0.440876 15.236 0.600006V1.8H13.436C13.2768 1.8 13.1242 1.86322 13.0117 1.97574C12.8992 2.08826 12.836 2.24086 12.836 2.39999V5.39999H8.03596C7.87683 5.39999 7.72422 5.46321 7.6117 5.57573C7.49918 5.68825 7.43596 5.84087 7.43596 6V9.60001H8.63596V6.60001H12.836V20.4H8.63596V10.8H7.43596V20.327C7.07935 20.0725 6.66861 19.9041 6.23596 19.835V18.6C6.23596 17.9635 5.98311 17.353 5.53302 16.9029C5.08293 16.4529 4.47248 16.2 3.83596 16.2H2.63596C1.99944 16.2 1.38899 16.4529 0.938906 16.9029C0.488818 17.353 0.235962 17.9635 0.235962 18.6V23.4C0.235962 23.5591 0.299176 23.7117 0.411697 23.8243C0.524219 23.9368 0.676832 24 0.835962 24H35.636C35.7951 24 35.9477 23.9368 36.0602 23.8243C36.1727 23.7117 36.236 23.5591 36.236 23.4V18.6C36.236 17.9635 35.9831 17.353 35.533 16.9029C35.0829 16.4529 34.4725 16.2 33.836 16.2ZM16.436 1.2H20.036V3.60001H16.436V1.2ZM1.43596 18.6C1.43596 18.2817 1.56239 17.9765 1.78743 17.7515C2.01248 17.5264 2.3177 17.4 2.63596 17.4H3.83596C4.15422 17.4 4.45945 17.5264 4.68449 17.7515C4.90953 17.9765 5.03596 18.2817 5.03596 18.6V19.836C4.36707 19.944 3.75839 20.2863 3.31871 20.8018C2.87904 21.3174 2.63703 21.9724 2.63596 22.65V22.8H1.43596V18.6ZM3.83596 22.8V22.65C3.83649 22.2125 4.0105 21.7932 4.31982 21.4839C4.62914 21.1745 5.04852 21.0005 5.48596 21H5.78596C6.22341 21.0005 6.64278 21.1745 6.9521 21.4839C7.26142 21.7932 7.43543 22.2125 7.43596 22.65V22.8H3.83596ZM8.63596 21.6H12.836V22.8H8.63596V21.6ZM14.036 3H15.236V4.2C15.236 4.35913 15.2992 4.51175 15.4117 4.62427C15.5242 4.73679 15.6768 4.8 15.836 4.8H20.636C20.7148 4.8 20.7928 4.78449 20.8656 4.75433C20.9384 4.72418 21.0045 4.67998 21.0602 4.62427C21.1159 4.56855 21.1601 4.50241 21.1903 4.42961C21.2204 4.35682 21.236 4.27879 21.236 4.2V3H22.436V22.8H20.636V18.6C20.636 18.4409 20.5727 18.2883 20.4602 18.1757C20.3477 18.0632 20.1951 18 20.036 18H16.436C16.2768 18 16.1242 18.0632 16.0117 18.1757C15.8992 18.2883 15.836 18.4409 15.836 18.6V22.8H14.036V3ZM17.036 22.8V19.2H19.436V22.8H17.036ZM23.636 21.6H27.836V22.8H23.636V21.6ZM29.036 22.8V22.65C29.0365 22.2125 29.2105 21.7932 29.5198 21.4839C29.8291 21.1745 30.2485 21.0005 30.686 21H30.986C31.4234 21.0005 31.8428 21.1745 32.1521 21.4839C32.4614 21.7932 32.6354 22.2125 32.636 22.65V22.8H29.036ZM35.036 22.8H33.836V22.65C33.8349 21.9724 33.5929 21.3174 33.1532 20.8018C32.7135 20.2863 32.1049 19.944 31.436 19.836V18.6C31.436 18.2817 31.5624 17.9765 31.7874 17.7515C32.0125 17.5264 32.3177 17.4 32.636 17.4H33.836C34.1542 17.4 34.4594 17.5264 34.6845 17.7515C34.9095 17.9765 35.036 18.2817 35.036 18.6V22.8Z" fill="white"/>
<path d="M24.8359 14.4H26.6359V15.6H24.8359V14.4Z" fill="white"/>
<path d="M24.8359 17.4H26.6359V18.6H24.8359V17.4Z" fill="white"/>
<path d="M24.8359 8.40002H26.6359V9.60004H24.8359V8.40002Z" fill="white"/>
<path d="M24.8359 11.4H26.6359V12.6H24.8359V11.4Z" fill="white"/>
</svg>
