<svg width="30" height="17" viewBox="0 0 30 17" fill="none" xmlns="http://www.w3.org/2000/svg">
<path d="M28.6299 5.7161C28.4941 5.54738 28.3228 5.41063 28.1282 5.31558C27.9336 5.22052 27.7205 5.16949 27.5039 5.1661H26.8659V4.6511C26.8497 4.19149 26.6523 3.75699 26.3166 3.44255C25.981 3.12812 25.5346 2.95934 25.0749 2.9731H24.2339V2.0221C24.2327 1.79707 24.1857 1.57463 24.0958 1.36834C24.0059 1.16204 23.8749 0.976193 23.7109 0.822102C23.3716 0.52056 22.9334 0.354004 22.4794 0.354004C22.0254 0.354004 21.5873 0.52056 21.2479 0.822102C21.084 0.97623 20.953 1.16208 20.8631 1.36837C20.7732 1.57466 20.7262 1.79708 20.7249 2.0221V6.4821H9.32091V2.0221C9.3198 1.79705 9.27285 1.57458 9.18293 1.36827C9.09301 1.16195 8.96201 0.97612 8.79791 0.822102C8.45856 0.52056 8.02037 0.354004 7.56641 0.354004C7.11245 0.354004 6.67426 0.52056 6.33491 0.822102C6.17086 0.976157 6.03988 1.162 5.94997 1.3683C5.86006 1.57461 5.81308 1.79706 5.81191 2.0221V2.9731H4.86891C4.43269 2.97044 4.01132 3.13136 3.68791 3.4241C3.5298 3.56775 3.40313 3.74257 3.31588 3.93756C3.22862 4.13255 3.18267 4.34349 3.18091 4.5571V5.1661H2.54891C2.33134 5.16953 2.1172 5.22086 1.92172 5.31644C1.72624 5.41202 1.55423 5.5495 1.41791 5.7191C1.13508 6.06739 0.982656 6.50346 0.98691 6.9521V9.5211C0.982488 9.96977 1.13494 10.4059 1.41791 10.7541C1.55423 10.9237 1.72624 11.0612 1.92172 11.1568C2.1172 11.2523 2.33134 11.3037 2.54891 11.3071H3.18091V11.9161C3.1826 12.1296 3.22843 12.3405 3.3155 12.5355C3.40258 12.7305 3.52903 12.9053 3.68691 13.0491C4.01011 13.3414 4.43114 13.502 4.86691 13.4991H5.80991V14.4501C5.81102 14.6752 5.85797 14.8976 5.94789 15.1039C6.03781 15.3103 6.16881 15.4961 6.33291 15.6501C6.66768 15.9609 7.1076 16.1336 7.56441 16.1336C8.02122 16.1336 8.46114 15.9609 8.79591 15.6501C8.96001 15.4961 9.09101 15.3103 9.18093 15.1039C9.27085 14.8976 9.3178 14.6752 9.31891 14.4501V9.9901H20.7189V14.4501C20.72 14.6752 20.767 14.8976 20.8569 15.1039C20.9468 15.3103 21.0778 15.4961 21.2419 15.6501C21.5767 15.9609 22.0166 16.1336 22.4734 16.1336C22.9302 16.1336 23.3701 15.9609 23.7049 15.6501C23.8689 15.496 23.9999 15.3102 24.0898 15.1039C24.1797 14.8976 24.2267 14.6751 24.2279 14.4501V13.4991H25.0689C25.5287 13.5131 25.9753 13.3444 26.3109 13.03C26.6466 12.7155 26.844 12.2808 26.8599 11.8211V11.3061H27.4979C27.7146 11.3027 27.9279 11.2516 28.1226 11.1566C28.3174 11.0615 28.4889 10.9248 28.6249 10.7561C28.9067 10.4093 29.0584 9.97492 29.0539 9.5281V6.9451C29.0599 6.49858 28.9099 6.06396 28.6299 5.7161ZM2.54891 10.4291C2.45992 10.426 2.37275 10.4031 2.2937 10.3621C2.21466 10.3211 2.14573 10.263 2.09191 10.1921C1.94096 10.0009 1.86045 9.76364 1.86391 9.5201V6.9521C1.86053 6.70857 1.94103 6.47129 2.09191 6.2801C2.14573 6.20916 2.21466 6.15109 2.2937 6.1101C2.37275 6.06911 2.45992 6.04622 2.54891 6.0431H3.18091V10.4291H2.54891ZM4.86891 12.6221C4.6528 12.6237 4.44374 12.5453 4.28191 12.4021C4.21258 12.3411 4.15683 12.2663 4.11824 12.1824C4.07966 12.0985 4.0591 12.0074 4.05791 11.9151V4.5571C4.05898 4.46485 4.07938 4.37385 4.11779 4.28996C4.1562 4.20608 4.21177 4.13118 4.28091 4.0701C4.44315 3.92689 4.65251 3.84855 4.86891 3.8501H5.81191V12.6231L4.86891 12.6221ZM8.44391 14.4501C8.44326 14.5555 8.4209 14.6596 8.37823 14.7559C8.33556 14.8523 8.2735 14.9388 8.19591 15.0101C8.02078 15.1603 7.79766 15.2429 7.56691 15.2429C7.33616 15.2429 7.11304 15.1603 6.93791 15.0101C6.86027 14.9388 6.79818 14.8523 6.75551 14.756C6.71283 14.6596 6.6905 14.5555 6.68991 14.4501V2.0221C6.69056 1.91673 6.71292 1.81262 6.75559 1.71627C6.79826 1.61993 6.86032 1.5334 6.93791 1.4621C7.10987 1.30491 7.33443 1.21774 7.56741 1.21774C7.80039 1.21774 8.02495 1.30491 8.19691 1.4621C8.27445 1.53344 8.33648 1.61997 8.37915 1.71631C8.42181 1.81265 8.4442 1.91674 8.44491 2.0221V14.4501H8.44391ZM9.32091 9.1131V7.3591H20.7209V9.1141L9.32091 9.1131ZM23.3569 14.4501C23.3563 14.5555 23.3339 14.6596 23.2912 14.7559C23.2486 14.8523 23.1865 14.9388 23.1089 15.0101C22.9338 15.1603 22.7107 15.2429 22.4799 15.2429C22.2492 15.2429 22.026 15.1603 21.8509 15.0101C21.7733 14.9388 21.7112 14.8523 21.6685 14.756C21.6258 14.6596 21.6035 14.5555 21.6029 14.4501V2.0221C21.6036 1.91673 21.6259 1.81262 21.6686 1.71627C21.7113 1.61993 21.7733 1.5334 21.8509 1.4621C22.0229 1.30491 22.2474 1.21774 22.4804 1.21774C22.7134 1.21774 22.9379 1.30491 23.1099 1.4621C23.1875 1.53336 23.2496 1.61988 23.2923 1.71624C23.335 1.81259 23.3573 1.91672 23.3579 2.0221L23.3569 14.4501ZM25.9869 11.8211C25.9705 12.0479 25.8653 12.2591 25.6942 12.4088C25.5231 12.5586 25.2999 12.6349 25.0729 12.6211H24.2319V3.8501H25.0729C25.2999 3.83635 25.5231 3.91262 25.6942 4.06238C25.8653 4.21214 25.9705 4.42331 25.9869 4.6501V11.8211ZM28.1869 9.5271C28.1905 9.76864 28.1111 10.0041 27.9619 10.1941C27.9083 10.2642 27.8399 10.3215 27.7616 10.3622C27.6833 10.4028 27.597 10.4256 27.5089 10.4291H26.8709V6.0391H27.5089C27.597 6.04257 27.6833 6.06542 27.7616 6.10604C27.8399 6.14666 27.9083 6.20404 27.9619 6.2741C28.1113 6.464 28.1907 6.69953 28.1869 6.9411V9.5271Z" fill="#2D3DDF"/>
</svg>
