<svg width="29" height="20" viewBox="0 0 29 20" fill="none" xmlns="http://www.w3.org/2000/svg">
<path d="M28.44 6.22599C28.3734 6.1444 28.2895 6.07859 28.1944 6.03329C28.0993 5.98799 27.9953 5.96432 27.89 5.96399H25.19C24.524 4.20799 23.657 2.48799 22.672 1.83899C19.262 -0.404012 10.218 -0.404012 6.80801 1.83899C5.82201 2.48899 4.95801 4.21099 4.28901 5.96399H1.59501C1.48958 5.96403 1.38547 5.98754 1.29026 6.03283C1.19505 6.07813 1.11112 6.14405 1.04457 6.22583C0.978017 6.30761 0.930514 6.40318 0.905509 6.50561C0.880505 6.60803 0.878626 6.71475 0.90001 6.81799L1.30001 8.75399C1.33295 8.91394 1.42009 9.05762 1.54672 9.16075C1.67335 9.26387 1.8317 9.32012 1.99501 9.31999H2.79501C2.04883 10.1915 1.64006 11.3017 1.64301 12.449C1.62879 13.1075 1.7534 13.7616 2.00874 14.3688C2.26408 14.976 2.64442 15.5226 3.12501 15.973C3.13601 15.982 3.14601 15.989 3.15601 15.998V18.707C3.15627 18.9891 3.26846 19.2596 3.46794 19.4591C3.66742 19.6585 3.9379 19.7707 4.22001 19.771H6.70901C6.99112 19.7707 7.2616 19.6585 7.46108 19.4591C7.66056 19.2596 7.77275 18.9891 7.77301 18.707V17.618H21.711V18.707C21.7113 18.9891 21.8235 19.2596 22.0229 19.4591C22.2224 19.6585 22.4929 19.7707 22.775 19.771H25.263C25.545 19.7705 25.8154 19.6582 26.0148 19.4588C26.2142 19.2593 26.3265 18.989 26.327 18.707V16.049C27.2376 15.1835 27.7784 13.9995 27.8363 12.7445C27.8943 11.4896 27.4649 10.2608 26.638 9.31499H27.49C27.6534 9.3155 27.812 9.25939 27.9387 9.1562C28.0654 9.05301 28.1524 8.90912 28.185 8.74899L28.585 6.81399C28.6053 6.71134 28.6029 6.60548 28.5778 6.50388C28.5528 6.40228 28.5057 6.30742 28.44 6.22599ZM7.98001 3.61599C10.698 1.82699 18.787 1.82699 21.503 3.61599C22.031 3.96199 22.71 5.36199 23.332 7.07699H6.15201C6.77301 5.36299 7.45201 3.96399 7.98001 3.61599ZM4.79701 12.716C4.79701 12.3018 4.91982 11.897 5.14991 11.5526C5.38 11.2083 5.70704 10.9399 6.08967 10.7814C6.4723 10.6229 6.89333 10.5814 7.29953 10.6622C7.70573 10.743 8.07884 10.9425 8.37169 11.2353C8.66454 11.5282 8.86398 11.9013 8.94477 12.3075C9.02557 12.7137 8.9841 13.1347 8.82561 13.5173C8.66712 13.9 8.39873 14.227 8.05437 14.4571C7.71002 14.6872 7.30516 14.81 6.89101 14.81C6.61602 14.8101 6.3437 14.7561 6.08959 14.651C5.83549 14.5459 5.60457 14.3917 5.41004 14.1974C5.2155 14.003 5.06114 13.7723 4.95579 13.5183C4.85043 13.2642 4.79614 12.992 4.79601 12.717L4.79701 12.716ZM22.622 14.81C22.2079 14.81 21.803 14.6872 21.4586 14.4571C21.1143 14.227 20.8459 13.9 20.6874 13.5173C20.5289 13.1347 20.4874 12.7137 20.5682 12.3075C20.649 11.9013 20.8485 11.5282 21.1413 11.2353C21.4342 10.9425 21.8073 10.743 22.2135 10.6622C22.6197 10.5814 23.0407 10.6229 23.4233 10.7814C23.806 10.9399 24.133 11.2083 24.3631 11.5526C24.5932 11.897 24.716 12.3018 24.716 12.716C24.7161 12.9911 24.6621 13.2635 24.5569 13.5176C24.4517 13.7718 24.2975 14.0028 24.103 14.1973C23.9086 14.3919 23.6777 14.5462 23.4236 14.6515C23.1695 14.7568 22.8971 14.81 22.622 14.81Z" fill="#2D3DDF"/>
</svg>
