<svg width="21" height="29" viewBox="0 0 21 29" fill="none" xmlns="http://www.w3.org/2000/svg">
<path d="M9.86217 14.526C9.86946 13.4265 9.59067 12.3441 9.05317 11.385L8.92717 11.164H1.03417L0.911172 11.385C0.374145 12.3443 0.0953849 13.4266 0.102172 14.526C0.102172 17.39 1.92517 19.763 4.29017 20.156V26.844C2.92617 26.899 1.90917 27.107 1.90917 27.352C1.90917 27.644 3.29417 27.877 5.00917 27.877C6.72417 27.877 8.10917 27.643 8.10917 27.352C8.10917 27.106 7.09317 26.899 5.72817 26.844V20.15C8.06417 19.733 9.86217 17.369 9.86217 14.526ZM4.98117 19.34C2.77217 19.34 0.972172 17.183 0.972172 14.523C0.967173 13.6591 1.16516 12.8062 1.55017 12.033H8.41217C8.79676 12.8064 8.99504 13.6592 8.99117 14.523C8.99317 17.183 7.19117 19.34 4.98117 19.34ZM18.2182 3.79296H14.7472V0.782959H18.2182V3.79296ZM18.2182 7.52296V4.72296H14.7472V7.52396C14.0055 7.85757 13.376 8.39828 12.9343 9.08108C12.4926 9.76389 12.2574 10.5597 12.2572 11.373V28.034H20.7062V11.373C20.707 10.5595 20.4725 9.76317 20.0311 9.0799C19.5897 8.39664 18.9601 7.8566 18.2182 7.52296ZM19.9612 23.783H13.0782V15.528H19.9612V23.783ZM8.62717 14.617C8.62717 14.617 8.44517 18.983 5.04017 18.983C1.63517 18.983 1.17217 14.617 1.17217 14.617H8.62717Z" fill="#2D3DDF"/>
</svg>
