<svg width="31" height="28" viewBox="0 0 31 28" fill="none" xmlns="http://www.w3.org/2000/svg">
<path d="M28.8859 14.268H5.94492V6.72397C5.93995 6.23842 6.06773 5.76074 6.31447 5.34252C6.56121 4.9243 6.91752 4.58144 7.34492 4.35098C7.81842 4.09437 8.358 3.98569 8.89392 4.03897C8.62056 4.86544 8.58154 5.75149 8.78119 6.59878C8.98083 7.44608 9.41133 8.2215 10.0249 8.83897L11.4559 10.27C11.5812 10.3953 11.7299 10.4947 11.8936 10.5625C12.0573 10.6303 12.2327 10.6652 12.4099 10.6652C12.5871 10.6652 12.7625 10.6303 12.9262 10.5625C13.0899 10.4947 13.2387 10.3953 13.3639 10.27L18.1349 5.49897C18.2602 5.3737 18.3596 5.22498 18.4274 5.06129C18.4952 4.8976 18.5301 4.72215 18.5301 4.54497C18.5301 4.36779 18.4952 4.19235 18.4274 4.02866C18.3596 3.86497 18.2602 3.71625 18.1349 3.59097L16.7049 2.15597C15.9083 1.36295 14.8546 0.880595 13.7338 0.795885C12.6129 0.711175 11.4987 1.02968 10.5919 1.69397C9.77439 1.37489 8.8913 1.26034 8.01941 1.36026C7.14753 1.46019 6.31325 1.77157 5.58911 2.26734C4.86497 2.76311 4.2729 3.42826 3.86435 4.20496C3.45581 4.98165 3.24317 5.84639 3.24492 6.72397V14.268H1.89492C1.53688 14.268 1.1935 14.4102 0.940328 14.6634C0.687154 14.9166 0.544922 15.2599 0.544922 15.618C0.544922 15.976 0.687154 16.3194 0.940328 16.5726C1.1935 16.8257 1.53688 16.968 1.89492 16.968H3.24492V21.017C3.24755 21.8516 3.5085 22.665 3.99194 23.3454C4.47538 24.0258 5.15761 24.5399 5.94492 24.817V26.417C5.94492 26.775 6.08715 27.1184 6.34033 27.3716C6.5935 27.6247 6.93688 27.767 7.29492 27.767C7.65296 27.767 7.99634 27.6247 8.24952 27.3716C8.50269 27.1184 8.64492 26.775 8.64492 26.417V25.067H22.1449V26.417C22.1449 26.775 22.2872 27.1184 22.5403 27.3716C22.7935 27.6247 23.1369 27.767 23.4949 27.767C23.853 27.767 24.1963 27.6247 24.4495 27.3716C24.7027 27.1184 24.8449 26.775 24.8449 26.417V24.817C25.6322 24.5399 26.3145 24.0258 26.7979 23.3454C27.2813 22.665 27.5423 21.8516 27.5449 21.017V16.967H28.8949C29.253 16.967 29.5963 16.8247 29.8495 16.5716C30.1027 16.3184 30.2449 15.975 30.2449 15.617C30.2449 15.2589 30.1027 14.9156 29.8495 14.6624C29.5963 14.4092 29.253 14.267 28.8949 14.267L28.8859 14.268ZM11.9349 4.06497C12.3149 3.68594 12.8297 3.47308 13.3664 3.47308C13.9031 3.47308 14.4179 3.68594 14.7979 4.06497L15.2749 4.54198L12.4119 7.40397L11.9349 6.92698C11.5556 6.54712 11.3426 6.03227 11.3426 5.49547C11.3426 4.95868 11.5556 4.44483 11.9349 4.06497ZM24.8349 21.016C24.8349 21.374 24.6927 21.7174 24.4395 21.9706C24.1863 22.2237 23.843 22.366 23.4849 22.366H7.29292C6.93488 22.366 6.5915 22.2237 6.33833 21.9706C6.08515 21.7174 5.94292 21.374 5.94292 21.016V16.967H24.8369L24.8349 21.016Z" fill="#2D3DDF"/>
</svg>
