<svg width="40" height="40" viewBox="0 0 40 40" fill="none" xmlns="http://www.w3.org/2000/svg">
<path d="M20 40C31.0457 40 40 31.0457 40 20C40 8.9543 31.0457 0 20 0C8.9543 0 0 8.9543 0 20C0 31.0457 8.9543 40 20 40Z" fill="white"/>
<path d="M19.5319 10.7C19.5878 10.486 19.7131 10.2966 19.8882 10.1614C20.0633 10.0262 20.2782 9.95288 20.4994 9.95288C20.7206 9.95288 20.9355 10.0262 21.1106 10.1614C21.2857 10.2966 21.411 10.486 21.4669 10.7L23.1079 16.984C23.1517 17.1486 23.2367 17.2993 23.355 17.4218C23.4733 17.5443 23.6209 17.6345 23.7839 17.684L29.8589 19.534C30.0639 19.5965 30.2433 19.7232 30.3708 19.8954C30.4983 20.0676 30.5672 20.2762 30.5672 20.4905C30.5672 20.7048 30.4983 20.9134 30.3708 21.0856C30.2433 21.2578 30.0639 21.3845 29.8589 21.447L23.7839 23.297C23.6209 23.3465 23.4733 23.4367 23.355 23.5592C23.2367 23.6817 23.1517 23.8324 23.1079 23.997L21.4679 30.3C21.412 30.514 21.2867 30.7034 21.1116 30.8386C20.9365 30.9738 20.7216 31.0471 20.5004 31.0471C20.2792 31.0471 20.0643 30.9738 19.8892 30.8386C19.7141 30.7034 19.5888 30.514 19.5329 30.3L17.8909 24.011C17.8472 23.8464 17.7621 23.6957 17.6438 23.5732C17.5255 23.4507 17.3779 23.3605 17.2149 23.311L11.1399 21.457C10.935 21.3945 10.7555 21.2678 10.628 21.0956C10.5005 20.9234 10.4316 20.7148 10.4316 20.5005C10.4316 20.2862 10.5005 20.0776 10.628 19.9054C10.7555 19.7332 10.935 19.6065 11.1399 19.544L17.2149 17.694C17.3779 17.6445 17.5255 17.5543 17.6438 17.4318C17.7621 17.3093 17.8472 17.1586 17.8909 16.994L19.5319 10.7Z" fill="#FF2F2F"/>
<path d="M12.0502 25.368C12.1086 25.1609 12.2329 24.9786 12.4044 24.8488C12.5759 24.7189 12.7851 24.6487 13.0002 24.6487C13.2153 24.6487 13.4245 24.7189 13.596 24.8488C13.7675 24.9786 13.8919 25.1609 13.9502 25.368C13.9961 25.5305 14.0828 25.6785 14.2022 25.7979C14.3216 25.9174 14.4697 26.0041 14.6322 26.05C14.8392 26.1083 15.0216 26.2327 15.1514 26.4042C15.2812 26.5757 15.3515 26.7849 15.3515 27C15.3515 27.2151 15.2812 27.4243 15.1514 27.5958C15.0216 27.7673 14.8392 27.8916 14.6322 27.95C14.4697 27.9958 14.3216 28.0826 14.2022 28.202C14.0828 28.3214 13.9961 28.4694 13.9502 28.632C13.8919 28.839 13.7675 29.0213 13.596 29.1512C13.4245 29.281 13.2153 29.3513 13.0002 29.3513C12.7851 29.3513 12.5759 29.281 12.4044 29.1512C12.2329 29.0213 12.1086 28.839 12.0502 28.632C12.0044 28.4694 11.9176 28.3214 11.7982 28.202C11.6788 28.0826 11.5307 27.9958 11.3682 27.95C11.1612 27.8916 10.9789 27.7673 10.849 27.5958C10.7192 27.4243 10.6489 27.2151 10.6489 27C10.6489 26.7849 10.7192 26.5757 10.849 26.4042C10.9789 26.2327 11.1612 26.1083 11.3682 26.05C11.5307 26.0041 11.6788 25.9174 11.7982 25.7979C11.9176 25.6785 12.0044 25.5305 12.0502 25.368Z" fill="#FF2F2F"/>
<path d="M26.038 11.7519C26.0926 11.5383 26.2168 11.349 26.391 11.2137C26.5652 11.0785 26.7794 11.0051 27 11.0051C27.2205 11.0051 27.4347 11.0785 27.6089 11.2137C27.7831 11.349 27.9073 11.5383 27.962 11.7519C28.0044 11.9159 28.088 12.0663 28.2049 12.1888C28.3218 12.3113 28.4682 12.4019 28.63 12.4519L28.942 12.5519C29.1456 12.6139 29.324 12.7397 29.4507 12.9108C29.5775 13.0818 29.6459 13.2891 29.6459 13.5019C29.6459 13.7148 29.5775 13.9221 29.4507 14.0931C29.324 14.2642 29.1456 14.39 28.942 14.4519L28.63 14.5519C28.4682 14.602 28.3218 14.6926 28.2049 14.8151C28.088 14.9376 28.0044 15.088 27.962 15.2519C27.9073 15.4656 27.7831 15.6549 27.6089 15.7901C27.4347 15.9254 27.2205 15.9988 27 15.9988C26.7794 15.9988 26.5652 15.9254 26.391 15.7901C26.2168 15.6549 26.0926 15.4656 26.038 15.2519C25.9955 15.088 25.9119 14.9376 25.795 14.8151C25.6781 14.6926 25.5318 14.602 25.37 14.5519L25.058 14.4519C24.8543 14.39 24.6759 14.2642 24.5492 14.0931C24.4224 13.9221 24.354 13.7148 24.354 13.5019C24.354 13.2891 24.4224 13.0818 24.5492 12.9108C24.6759 12.7397 24.8543 12.6139 25.058 12.5519L25.37 12.4519C25.5318 12.4019 25.6781 12.3113 25.795 12.1888C25.9119 12.0663 25.9955 11.9159 26.038 11.7519Z" fill="#FF2F2F"/>
</svg>
